<svg width="16" height="12" viewBox="0 0 16 12" fill="none" xmlns="http://www.w3.org/2000/svg">
<mask id="path-1-outside-1_5530_2517" maskUnits="userSpaceOnUse" x="-0.556641" y="0.136108" width="17" height="11" fill="black">
<rect fill="white" x="-0.556641" y="0.136108" width="17" height="11"/>
<path d="M15.376 5.50363C14.5597 4.47988 11.616 1.13611 7.99968 1.13611C4.38336 1.13611 1.43968 4.47979 0.623359 5.50363C0.383359 5.79176 0.383359 6.20737 0.623359 6.51176C1.43962 7.51988 4.38336 10.8636 7.99968 10.8636C11.616 10.8636 14.5597 7.51992 15.376 6.49544C15.5997 6.22357 15.5997 5.77606 15.376 5.50356V5.50363ZM7.99968 9.85611C4.91152 9.85611 2.23968 6.86427 1.50336 5.99979C2.22336 5.10353 4.91152 2.14347 7.99968 2.14347C11.0878 2.14347 13.7597 5.10347 14.496 5.99979C13.7597 6.89604 11.0878 9.85611 7.99968 9.85611Z"/>
</mask>
<path d="M15.376 5.50363C14.5597 4.47988 11.616 1.13611 7.99968 1.13611C4.38336 1.13611 1.43968 4.47979 0.623359 5.50363C0.383359 5.79176 0.383359 6.20737 0.623359 6.51176C1.43962 7.51988 4.38336 10.8636 7.99968 10.8636C11.616 10.8636 14.5597 7.51992 15.376 6.49544C15.5997 6.22357 15.5997 5.77606 15.376 5.50356V5.50363ZM7.99968 9.85611C4.91152 9.85611 2.23968 6.86427 1.50336 5.99979C2.22336 5.10353 4.91152 2.14347 7.99968 2.14347C11.0878 2.14347 13.7597 5.10347 14.496 5.99979C13.7597 6.89604 11.0878 9.85611 7.99968 9.85611Z" fill="#545F7D"/>
<path d="M15.376 5.50363L15.2196 5.62831L15.576 6.07528V5.50363H15.376ZM0.623359 5.50363L0.777067 5.63166L0.779738 5.62831L0.623359 5.50363ZM0.623359 6.51176L0.466294 6.6356L0.467922 6.63761L0.623359 6.51176ZM15.376 6.49544L15.2216 6.36833L15.2196 6.3708L15.376 6.49544ZM15.376 5.50356L15.5306 5.37665L15.176 4.94482V5.50356H15.376ZM1.50336 5.99979L1.34744 5.87453L1.24382 6.00352L1.3511 6.12947L1.50336 5.99979ZM14.496 5.99979L14.6505 6.12674L14.7548 5.99979L14.6505 5.87283L14.496 5.99979ZM15.5324 5.37894C15.1186 4.85997 14.1665 3.75377 12.8576 2.77575C11.5507 1.79922 9.8688 0.936108 7.99968 0.936108V1.33611C9.74688 1.33611 11.345 2.14488 12.6181 3.09618C13.8893 4.04598 14.8172 5.12354 15.2196 5.62831L15.5324 5.37894ZM7.99968 0.936108C6.13056 0.936108 4.44869 1.7992 3.14181 2.77571C1.83292 3.75372 0.880806 4.85992 0.466981 5.37895L0.779738 5.62831C1.18223 5.1235 2.11012 4.04593 3.38123 3.09614C4.65435 2.14486 6.25248 1.33611 7.99968 1.33611V0.936108ZM0.469687 5.37562C0.166285 5.73987 0.170675 6.26065 0.466307 6.63559L0.780412 6.38792C0.596043 6.1541 0.600434 5.84364 0.777032 5.63163L0.469687 5.37562ZM0.467922 6.63761C0.881104 7.14792 1.83309 8.25007 3.14194 9.22606C4.44873 10.2005 6.13058 11.0636 7.99968 11.0636V10.6636C6.25246 10.6636 4.65428 9.85482 3.38105 8.90539C2.10988 7.95749 1.18187 6.88372 0.778797 6.3859L0.467922 6.63761ZM7.99968 11.0636C9.8688 11.0636 11.5507 10.2005 12.8576 9.22391C14.1664 8.24581 15.1186 7.13945 15.5324 6.62007L15.2196 6.3708C14.8171 6.8759 13.8892 7.95362 12.6181 8.90349C11.345 9.85484 9.74688 10.6636 7.99968 10.6636V11.0636ZM15.5304 6.62253C15.815 6.27674 15.8148 5.72283 15.5306 5.37665L15.2214 5.63048C15.3847 5.82929 15.3845 6.17039 15.2216 6.36835L15.5304 6.62253ZM15.176 5.50356V5.50363H15.576V5.50356H15.176ZM7.99968 9.65611C6.51823 9.65611 5.12054 8.9369 3.98927 8.09189C2.86106 7.24918 2.02039 6.29836 1.65562 5.8701L1.3511 6.12947C1.72265 6.56569 2.58606 7.54304 3.74989 8.41236C4.91066 9.2794 6.39297 10.0561 7.99968 10.0561V9.65611ZM1.65928 6.12504C2.01255 5.68529 2.85258 4.73484 3.98265 3.89613C5.1155 3.05537 6.51753 2.34347 7.99968 2.34347V1.94347C6.39366 1.94347 4.90753 2.7116 3.74427 3.57493C2.57822 4.44032 1.71417 5.41803 1.34744 5.87453L1.65928 6.12504ZM7.99968 2.34347C9.48171 2.34347 10.8796 3.05526 12.0104 3.89601C13.1384 4.73465 13.9788 5.68525 14.3415 6.12674L14.6505 5.87283C14.2769 5.41801 13.4132 4.44045 12.2491 3.57501C11.0879 2.71168 9.60581 1.94347 7.99968 1.94347V2.34347ZM14.3415 5.87284C13.9788 6.3143 13.1385 7.2649 12.0105 8.10354C10.8796 8.9443 9.48171 9.65611 7.99968 9.65611V10.0561C9.60581 10.0561 11.0879 9.28788 12.2491 8.42455C13.4132 7.55909 14.2769 6.58153 14.6505 6.12674L14.3415 5.87284Z" fill="#545F7D" mask="url(#path-1-outside-1_5530_2517)"/>
<path d="M8.00014 2.90818C6.29675 2.90818 4.9083 4.2967 4.9083 6.00002C4.9083 7.70334 6.29682 9.09186 8.00014 9.09186C9.70346 9.09186 11.092 7.70334 11.092 6.00002C11.092 4.29669 9.70346 2.90818 8.00014 2.90818ZM8.00014 7.88386C6.96726 7.88386 6.11646 7.0324 6.11646 6.00018C6.11646 4.96728 6.96732 4.1165 8.00014 4.1165C9.03296 4.1165 9.88382 4.96736 9.88382 6.00018C9.88382 7.033 9.03296 7.88386 8.00014 7.88386Z" fill="#545F7D" stroke="#545F7D" stroke-width="0.2"/>
</svg>
